<svg width="80" height="80" viewBox="0 0 80 80" fill="none" xmlns="http://www.w3.org/2000/svg">
<path d="M55.8072 36.4941H51.4208C50.6058 36.4941 49.8841 37.0206 49.6353 37.7968L45.5479 50.5476C45.16 51.7576 46.0627 52.9949 47.3334 52.9949H49.5721C50.2877 52.9949 50.8572 53.5945 50.8204 54.3092L50.1274 67.7697C50.1101 68.1056 50.5629 68.228 50.7171 67.9291L60.3339 49.2974C60.9781 48.0495 60.0722 46.5624 58.6678 46.5624H56.7958C55.9434 46.5624 55.341 45.7279 55.6094 44.9188L57.5867 38.9596C57.9895 37.746 57.0859 36.4941 55.8072 36.4941Z" fill="#FFD400"/>
<path d="M61.3627 51.8195L62.6504 49.3248C63.7887 47.1193 62.1877 44.4914 59.7058 44.4914H57.9333L59.8283 38.7802C60.54 36.6354 58.9431 34.4231 56.6833 34.4231H50.9594C49.5191 34.4231 48.2437 35.3536 47.804 36.7252L43.3111 50.7407C43.1951 51.1026 43.1444 51.4658 43.1511 51.8195L20.7396 51.8195C12.0469 51.8195 5 44.7726 5 36.0799C5 27.3871 12.0469 20.3402 20.7396 20.3402C22.6245 20.3402 24.432 20.6715 26.107 21.2791C29.4119 13.1955 37.3544 7.5 46.6272 7.5C58.8657 7.5 68.787 17.4213 68.787 29.6598C68.787 30.1989 68.7677 30.7335 68.7299 31.263C72.4308 32.9671 75 36.7087 75 41.0503C75 46.998 70.1784 51.8195 64.2308 51.8195H61.3627Z" fill="#D9D9D9"/>
<path d="M42.7707 68.7268L40.6212 64.2454L38.4715 68.7275C38.2582 69.1009 38.1361 69.535 38.1361 69.9982C38.1361 71.3962 39.2487 72.5294 40.6213 72.5294C41.9938 72.5294 43.1065 71.3962 43.1065 69.9982C43.1065 69.5348 42.9842 69.1004 42.7707 68.7268Z" fill="#64D2FF"/>
<path d="M35.3154 60.4435L33.1656 55.9614L31.0161 60.4429C30.8027 60.8165 30.6804 61.2508 30.6804 61.7142C30.6804 63.1122 31.7931 64.2454 33.1656 64.2454C34.5382 64.2454 35.6508 63.1122 35.6508 61.7142C35.6508 61.2511 35.5287 60.817 35.3154 60.4435Z" fill="#64D2FF"/>
<path d="M27.8597 68.7273L25.71 64.2454L23.5605 68.727C23.3471 69.1006 23.2248 69.5349 23.2248 69.9982C23.2248 71.3962 24.3375 72.5294 25.71 72.5294C27.0826 72.5294 28.1952 71.3962 28.1952 69.9982C28.1952 69.535 28.0731 69.1008 27.8597 68.7273Z" fill="#64D2FF"/>
<path d="M20.404 60.4431L18.2544 55.9614L16.1047 60.4433C15.8913 60.8168 15.7692 61.251 15.7692 61.7142C15.7692 63.1122 16.8818 64.2454 18.2544 64.2454C19.6269 64.2454 20.7396 63.1122 20.7396 61.7142C20.7396 61.2509 20.6174 60.8166 20.404 60.4431Z" fill="#64D2FF"/>
</svg>
